<svg xmlns="http://www.w3.org/2000/svg" viewBox="0 0 922.79 212.13"><defs><style>.cls-1{fill:#fefefe;}.cls-2{fill:#b4c41a;}.cls-3{fill:#006344;}.cls-4{fill:#b5c51d;}.cls-5{fill:#fdfdfb;}.cls-6{fill:#fcfcf8;}.cls-7{fill:#b6c61f;}</style></defs><title>Asset 1</title><g id="Layer_2" data-name="Layer 2"><g id="Layer_1-2" data-name="Layer 1"><path class="cls-1" d="M108,129.28c-6.54-1.87-13-4-19.38-6.38-2.86-1.08-3.89-.42-5.12,2.25a27.13,27.13,0,0,1-43.52,8c-9.37-9.17-10.77-20.64-8.44-32.83A27,27,0,0,1,54.84,78.17c13.46-1.6,22,3.17,27.8,15.88,1,2.15,1.89,2.56,4.09,1.78,6.88-2.45,13.79-4.82,20.79-6.89,3.32-1,3.52-2.57,2.46-5.43C106,72.7,99.49,63.72,89.46,57.93c-19.7-11.36-40.1-11.82-60-1C9.23,67.94.58,86.33,0,107.83c.24,6.55.64,12,2,17.37,7.18,28.57,34.69,48.38,68.34,42.6,19.29-3.32,32.85-14.4,40.14-32.84C111.71,131.87,111.5,130.3,108,129.28Zm72.84-79.86c-33.88.09-59.06,25.65-58.93,59.81s25.27,59.6,59.18,59.55,58.86-25.42,58.85-59.77S214.67,49.33,180.81,49.42Zm5.39,91c-14.81,2.57-27.81-5.26-31.9-19.79-3.73-13.29-2.57-26,8-36,8.34-7.89,18.66-9.36,29.29-5.11,11.66,4.65,16.42,14.36,17.66,26.24.12,1.16.12,2.33.17,3.5C209.35,125.66,200.21,138,186.2,140.38Zm125.5-91c-33.71,0-58.77,25.29-58.83,59.29-.06,34.77,24.88,60.16,59,60.07s58.7-25.13,58.7-59.74S345.71,49.38,311.7,49.42Zm4.73,91.06c-13.68,2.2-26.24-5.1-30.81-18.1A39.16,39.16,0,0,1,285,97.84c3.83-13,14.86-21.09,27.88-20.51a27.88,27.88,0,0,1,26.43,23.08c.57,2.93.76,5.93,1.13,8.9C340.15,126,330.87,138.15,316.43,140.48ZM499,160.82c-13.52-19.19-27-38.4-40.62-57.51-1.65-2.32-1.77-3.55.36-5.72,10-10.21,19.85-20.65,29.71-31,4-4.23,8-8.54,12.56-13.47-12.68,0-24.18.11-35.67-.07a8.75,8.75,0,0,0-7.29,3.21c-11.43,12.51-23,24.87-35.51,38.31V89.2c0-28.33-.05-56.66.06-85,0-3.18-.71-4.31-4.08-4.2-7.66.26-15.33.18-23,0-2.62,0-3.38.72-3.38,3.36q.1,79.25,0,158.49c0,2.51.52,3.59,3.27,3.43,4-.22,8,.07,12-.09,4.94-.19,11.53,2.15,14.34-1,2.44-2.7,1.25-9.25.66-14-1.29-10.24,1.66-18.26,9.8-24.85,2.85-2.3,3.52-2,5.32.66,8.2,12.14,16.59,24.15,25,36.17.89,1.28,1.43,3,3.59,3,11.72-.05,23.43,0,35.9,0C500.65,163.23,499.86,162,499,160.82ZM629.46,85.06c-12.28-40.59-61.73-43.8-82.07-21,0-20.47-.07-40.13.07-59.79,0-3.24-.86-4.3-4.16-4.19-7.16.24-14.34.25-21.49,0-3.43-.12-4.61.78-4.5,4.37.26,8.82.08,17.66.08,26.49,0,43.16.05,86.31-.08,129.47,0,3.8.78,5.21,4.86,5,7-.37,14-.26,21,0,3.15.11,4.05-1,3.9-4-.13-2.47-.52-5.08.5-7.82,6.41,6.7,9.91,9.27,15.53,11.49,19.67,7.81,44.47,1.22,57.13-15.81C634.79,129.61,636.33,107.78,629.46,85.06Zm-29.62,38.67c-4.12,10.65-13.26,16.93-24.74,16.88s-20-5.43-24.92-16c-2.31-4.92-3.07-10.15-3.16-16.23.1-10.52,3.21-20.44,13.15-26.86a27,27,0,0,1,40.15,13.85A39.94,39.94,0,0,1,599.84,123.73ZM747.52,157.2c-.08-1-.12-2-.13-3,0-20.81,0-41.63-.17-62.44-.1-18.26-8.79-32.09-24.63-38.08-14.79-5.59-30-6.13-44.94-.59-13.41,5-22.66,14.2-26.74,28.22-1,3.61-1,5.84,3.68,6.46a135.54,135.54,0,0,1,18,3.77c3.38.93,4.39.28,5.42-3.11,4.16-13.8,23.38-19.29,34.46-10,3.67,3.07,5.52,7.2,4.47,12-1,4.53-4.8,5.52-8.77,6-1.82.23-3.63.5-5.42.84-11.09,2.12-22.55,2.26-33.26,6.3C656,108.76,647.91,120,647.55,134c-.34,13.12,8.25,25.77,21.14,31.16,17.83,7.44,35.54,3.39,50.49-12,.19,3,.42,5.32.48,7.61.09,3.45,1.47,4.88,5.21,4.58,5-.39,10-.09,15-.09C748.17,165.26,748.16,165.26,747.52,157.2Zm-30.28-36.51c-.17,17.05-11.31,27-27.61,24.68a12.8,12.8,0,0,1-11.18-10.48c-.92-6,1.71-11.38,7.29-14,7.22-3.35,15.26-3,22.86-4.61,1-.21,2-.21,3-.37C717.3,115,717.29,115,717.24,120.69Zm163.2-64.3c0-2.71-1-3.39-3.48-3.33-6,.14-12,0-18,0-8,0-7.94,0-8.2,8.14,0,.85.53,2.09-1,2.4-2.9-3.47-6.13-6.62-10.37-8.39-17.86-7.44-35.13-5.94-50.62,5.46-17.66,13-24,31.4-21.4,52.81,2.43,20,12.35,35.26,31.45,42.78,18.25,7.18,35.84,6.23,51.37-8.85a81.44,81.44,0,0,1-.49,13.68c-2,14.46-9.7,22.11-24.43,23.9s-25.15-4.52-30.1-18.06c-.71-2-1.27-3.08-3.8-2.34-7.19,2.1-14.45,4-21.71,5.78-2.54.64-2.94,1.85-2.32,4.29a43.79,43.79,0,0,0,9.49,18.48c12.45,14.21,28.68,19.08,47,18.95,32.55-.24,55.39-21.24,56.26-53.76C880.94,124.4,880.31,90.38,880.44,56.39ZM824.25,134.1c-15.94,0-26.75-11.5-26.71-28.4,0-16.5,11.66-28.61,27.13-28.26,15.12.34,25.91,12.19,25.87,28.42C850.5,122.63,839.81,134.12,824.25,134.1Zm78.88-80.95c-.39-.68-.84-1.24-1.76-.9l1.1,1.2c.24,0,.49,0,.73-.06C903.18,53.31,903.15,53.23,903.13,53.15Zm5.14-6.9a14.51,14.51,0,0,0-14.89,14.23c-.19,8.69,6.34,15.65,14.63,15.6a15,15,0,0,0,14.77-14.61A14.81,14.81,0,0,0,908.27,46.25Zm6.17,23.85a.85.85,0,0,0,.14-.41.89.89,0,0,0-.24-.75c.2-2.43-3.16-4-1.43-7,3.16-5.59,1.21-8.74-5.06-8.8-1.55,0-3.09.15-4.65.26,0-.08-.05-.16-.07-.24-.39-.68-.84-1.24-1.76-.9l1.1,1.2c0,3.64-.11,7.28.13,10.91.11,1.66-1.38,4.52,1.91,4.62s1.36-3,2.21-4.49c.11-.18.51-.2,1-.37,1.44,2.57,2.35,6.11,6.6,5l.06,1c-5.53,3.58-11.46,2.82-15-1.93-3.77-5-3-11.4,2-16,4.76-4.55,12.13-2.4,15.32,1.75S920.48,66.19,914.44,70.1Zm-4.17-12c.09,1.44-.85,2.07-2.19,2.13s-1.53-.94-1.55-2,.35-1.95,1.69-1.88C909.33,56.39,910.2,56.88,910.27,58.06Z"/><path class="cls-2" d="M880.44,56.39c0-2.71-1-3.39-3.48-3.33-6,.14-12,0-18,0-8,0-7.94,0-8.2,8.14,0,.85.53,2.09-1,2.4-2.9-3.47-6.13-6.62-10.37-8.39-17.86-7.44-35.13-5.94-50.62,5.46-17.66,13-24,31.4-21.4,52.81,2.43,20,12.35,35.26,31.45,42.78,18.25,7.18,35.84,6.23,51.37-8.85a81.44,81.44,0,0,1-.49,13.68c-2,14.46-9.7,22.11-24.43,23.9s-25.15-4.52-30.1-18.06c-.71-2-1.27-3.08-3.8-2.34-7.19,2.1-14.45,4-21.71,5.78-2.54.64-2.94,1.85-2.32,4.29a43.79,43.79,0,0,0,9.49,18.48c12.45,14.21,28.68,19.08,47,18.95,32.55-.24,55.39-21.24,56.26-53.76C880.94,124.4,880.31,90.38,880.44,56.39ZM824.25,134.1c-15.94,0-26.75-11.5-26.71-28.4,0-16.5,11.66-28.61,27.13-28.26,15.12.34,25.91,12.19,25.87,28.42C850.5,122.63,839.81,134.12,824.25,134.1Z"/><path class="cls-2" d="M629.46,85.06c-12.28-40.59-61.73-43.8-82.07-21,0-20.47-.07-40.13.07-59.79,0-3.24-.86-4.3-4.16-4.19-7.16.24-14.34.25-21.49,0-3.43-.12-4.61.78-4.5,4.37.26,8.82.08,17.66.08,26.49,0,43.16.05,86.31-.08,129.47,0,3.8.78,5.21,4.86,5,7-.37,14-.26,21,0,3.15.11,4.05-1,3.9-4-.13-2.47-.52-5.08.5-7.82,6.41,6.7,9.91,9.27,15.53,11.49,19.67,7.81,44.47,1.22,57.13-15.81C634.79,129.61,636.33,107.78,629.46,85.06Zm-29.62,38.67c-4.12,10.65-13.26,16.93-24.74,16.88s-20-5.43-24.92-16c-2.31-4.92-3.07-10.15-3.16-16.23.1-10.52,3.21-20.44,13.15-26.86a27,27,0,0,1,40.15,13.85A39.94,39.94,0,0,1,599.84,123.73Z"/><path class="cls-3" d="M502,165.25c-12.47,0-24.18,0-35.9,0-2.16,0-2.7-1.72-3.59-3-8.37-12-16.76-24-25-36.17-1.8-2.66-2.47-3-5.32-.66-8.14,6.59-11.09,14.61-9.8,24.85.59,4.72,1.78,11.27-.66,14-2.81,3.11-9.4.77-14.34,1-4,.16-8-.13-12,.09-2.75.16-3.28-.92-3.27-3.43q.09-79.24,0-158.49c0-2.64.76-3.41,3.38-3.36,7.66.16,15.33.24,23,0,3.37-.11,4.1,1,4.08,4.2-.11,28.33-.06,56.66-.06,85v5.34c12.49-13.44,24.08-25.8,35.51-38.31A8.75,8.75,0,0,1,465.36,53c11.49.18,23,.07,35.67.07-4.59,4.93-8.54,9.24-12.56,13.47-9.86,10.38-19.67,20.82-29.71,31-2.13,2.17-2,3.4-.36,5.72C472,122.42,485.5,141.63,499,160.82,499.86,162,500.65,163.23,502,165.25Z"/><path class="cls-3" d="M180.81,49.42c-33.88.09-59.06,25.65-58.93,59.81s25.27,59.6,59.18,59.55,58.86-25.42,58.85-59.77S214.67,49.33,180.81,49.42Zm5.39,91c-14.81,2.57-27.81-5.26-31.9-19.79-3.73-13.29-2.57-26,8-36,8.34-7.89,18.66-9.36,29.29-5.11,11.66,4.65,16.42,14.36,17.66,26.24.12,1.16.12,2.33.17,3.5C209.35,125.66,200.21,138,186.2,140.38Z"/><path class="cls-3" d="M311.7,49.42c-33.71,0-58.77,25.29-58.83,59.29-.06,34.77,24.88,60.16,59,60.07s58.7-25.13,58.7-59.74S345.71,49.38,311.7,49.42Zm4.73,91.06c-13.68,2.2-26.24-5.1-30.81-18.1A39.16,39.16,0,0,1,285,97.84c3.83-13,14.86-21.09,27.88-20.51a27.88,27.88,0,0,1,26.43,23.08c.57,2.93.76,5.93,1.13,8.9C340.15,126,330.87,138.15,316.43,140.48Z"/><path class="cls-2" d="M747.52,157.2c-.08-1-.12-2-.13-3,0-20.81,0-41.63-.17-62.44-.1-18.26-8.79-32.09-24.63-38.08-14.79-5.59-30-6.13-44.94-.59-13.41,5-22.66,14.2-26.74,28.22-1,3.61-1,5.84,3.68,6.46a135.54,135.54,0,0,1,18,3.77c3.38.93,4.39.28,5.42-3.11,4.16-13.8,23.38-19.29,34.46-10,3.67,3.07,5.52,7.2,4.47,12-1,4.53-4.8,5.52-8.77,6-1.82.23-3.63.5-5.42.84-11.09,2.12-22.55,2.26-33.26,6.3C656,108.76,647.91,120,647.55,134c-.34,13.12,8.25,25.77,21.14,31.16,17.83,7.44,35.54,3.39,50.49-12,.19,3,.42,5.32.48,7.61.09,3.45,1.47,4.88,5.21,4.58,5-.39,10-.09,15-.09C748.17,165.26,748.16,165.26,747.52,157.2Zm-30.28-36.51c-.17,17.05-11.31,27-27.61,24.68a12.8,12.8,0,0,1-11.18-10.48c-.92-6,1.71-11.38,7.29-14,7.22-3.35,15.26-3,22.86-4.61,1-.21,2-.21,3-.37C717.3,115,717.29,115,717.24,120.69Z"/><path class="cls-3" d="M110.48,135c-7.29,18.44-20.85,29.52-40.14,32.84-33.65,5.78-61.16-14-68.34-42.6C.64,119.82.24,114.38,0,107.83c.58-21.5,9.23-39.89,29.5-50.91,19.86-10.81,40.26-10.35,60,1C99.49,63.72,106,72.7,110,83.51c1.06,2.86.86,4.45-2.46,5.43-7,2.07-13.91,4.44-20.79,6.89-2.2.78-3.1.37-4.09-1.78C76.8,81.34,68.3,76.57,54.84,78.17a27,27,0,0,0-23.33,22.16C29.18,112.52,30.58,124,40,133.16a27.13,27.13,0,0,0,43.52-8c1.23-2.67,2.26-3.33,5.12-2.25,6.36,2.38,12.84,4.51,19.38,6.38C111.5,130.3,111.71,131.87,110.48,135Z"/><path class="cls-4" d="M903.13,53.15c-.39-.68-.84-1.24-1.76-.9l1.1,1.2c.24,0,.49,0,.73-.06C903.18,53.31,903.15,53.23,903.13,53.15Zm5.14-6.9a14.51,14.51,0,0,0-14.89,14.23c-.19,8.69,6.34,15.65,14.63,15.6a15,15,0,0,0,14.77-14.61A14.81,14.81,0,0,0,908.27,46.25Zm6.17,23.85a.85.85,0,0,0,.14-.41.89.89,0,0,0-.24-.75c.2-2.43-3.16-4-1.43-7,3.16-5.59,1.21-8.74-5.06-8.8-1.55,0-3.09.15-4.65.26,0-.08-.05-.16-.07-.24-.39-.68-.84-1.24-1.76-.9l1.1,1.2c0,3.64-.11,7.28.13,10.91.11,1.66-1.38,4.52,1.91,4.62s1.36-3,2.21-4.49c.11-.18.51-.2,1-.37,1.44,2.57,2.35,6.11,6.6,5l.06,1c-5.53,3.58-11.46,2.82-15-1.93-3.77-5-3-11.4,2-16,4.76-4.55,12.13-2.4,15.32,1.75S920.48,66.19,914.44,70.1Zm-4.17-12c.09,1.44-.85,2.07-2.19,2.13s-1.53-.94-1.55-2,.35-1.95,1.69-1.88C909.33,56.39,910.2,56.88,910.27,58.06Z"/><path class="cls-5" d="M914.58,69.69a.85.85,0,0,1-.14.41l-.05,0-.06-1c-4.25,1.13-5.16-2.41-6.6-5-.5.17-.9.19-1,.37-.85,1.47,1.2,4.6-2.21,4.49s-1.8-3-1.91-4.62c-.24-3.63-.11-7.27-.13-10.91l-1.1-1.2c.92-.34,1.37.22,1.76.9,0,.08,0,.16.07.24s.11.42.16.62c.9,4-.3,8.22.8,12.38,2.82-3.87,2.87-3.92,6.13-.39a15.05,15.05,0,0,0,3.19,2.31c.27.17.54.35.79.54a.28.28,0,0,1,.07.09A.89.89,0,0,1,914.58,69.69Z"/><path class="cls-6" d="M914.58,69.69a.85.85,0,0,1-.14.41l-.05,0-.06-1a8.1,8.1,0,0,1-.85-.79c-1.76-1.84-2.2-4-1.46-6.75,1.52-5.63.77-6.52-5.29-7a9.77,9.77,0,0,1-3.37-.56,3.68,3.68,0,0,1-.89-.56l-1.1-1.2c.92-.34,1.37.22,1.76.9,0,.08,0,.16.07.24,1.56-.11,3.1-.28,4.65-.26,6.27.06,8.22,3.21,5.06,8.8-1.73,3.06,1.63,4.58,1.43,7A.89.89,0,0,1,914.58,69.69Z"/><path class="cls-7" d="M912.91,61.93c3.16-5.59,1.21-8.74-5.06-8.8-1.55,0-3.09.15-4.65.26-.24,0-.49,0-.73.06,0,3.64-.11,7.28.13,10.91.11,1.66-1.38,4.52,1.91,4.62s1.36-3,2.21-4.49c.11-.18.51-.2,1-.37,1.44,2.57,2.35,6.11,6.6,5a.43.43,0,0,0,0-.16C914.54,66.51,911.18,65,912.91,61.93Zm-4.83-1.74c-1.41.06-1.53-.94-1.55-2s.35-1.95,1.69-1.88c1.11.08,2,.57,2,1.75C910.36,59.5,909.42,60.13,908.08,60.19Z"/></g></g></svg>