<svg id="Layer_1" data-name="Layer 1" xmlns="http://www.w3.org/2000/svg" viewBox="0 0 511.15 336.2"><defs><style>.cls-1{fill:#b4c41a;}.cls-2{fill:#006344;}.cls-3{fill:#b5c51b;}.cls-4{fill:#fefefe;}.cls-5{fill:#fefefd;}.cls-6{fill:#b5c51c;}.cls-7{fill:#f8f9ec;}</style></defs><title>Logo</title><path class="cls-1" d="M298,412.3c0,8.57-.2,15.54.08,22.49.14,3.43-1.09,4.17-4.25,4.15-16.66-.13-33.32-.19-50,0-4,.06-4.95-1.11-4.94-5,.14-43.49.09-87,.09-130.46q0-94.21-.1-188.43c0-4.49,1-5.86,5.69-5.77,16.15.31,32.32.34,48.47,0,5-.11,5.92,1.49,5.9,6.14-.19,38.82-.11,77.64-.11,116.46v6.35c2.73-2.95,4.77-5.46,7.13-7.63,16.53-15.27,36.61-21.16,58.58-21.46,51.64-.71,89.78,29.72,101.21,81.45,8,36.11,5.26,71.26-13.5,103.94-28,48.77-84,57.92-121,43.83C318,433.33,307.16,425.11,298,412.3Z" transform="translate(12.05 -109.29)"/><path class="cls-2" d="M107,445.44C45.38,445.44-2.39,404.78-10.62,345c-5.17-37.59,3.47-71.88,29.55-100.46,21.12-23.16,48-34.67,79.07-36.2,24.65-1.22,48.08,3.47,69.11,17.05,20.19,13,33.73,31.24,41,54.19,1,3.14.64,4.56-2.69,5.64-15.78,5.13-31.49,10.48-47.2,15.8-2.15.73-3.25.94-4.35-1.83-10-25.14-27.16-36.44-52.52-34.81C76.94,266,57.35,282,51.37,306.23c-4.95,20-4,39.85,7.2,57.83,12.09,19.35,30.37,27.25,52.77,25.47,21.92-1.75,36.63-13.55,44.54-33.88,1.05-2.71,1.85-3.47,4.81-2.45q22.86,7.91,45.9,15.29c3.37,1.08,3.9,2.39,2.74,5.69-13.32,38-40,60.63-79,69.09A96.6,96.6,0,0,1,107,445.44Z" transform="translate(12.05 -109.29)"/><path class="cls-3" d="M478.85,398.13A20.28,20.28,0,0,1,499.1,419a20.53,20.53,0,1,1-20.25-20.89Z" transform="translate(12.05 -109.29)"/><path class="cls-4" d="M409,328.47c-.27,13.73-3.26,28.57-13.07,41.24-20.63,26.63-62.1,27.09-83.76,1C293.37,348,292.89,306,311.56,283.1c13.7-16.76,31.91-22.29,52.75-18.67,19.42,3.37,32.55,15,39.73,33.32C407.66,307,409,316.68,409,328.47Z" transform="translate(12.05 -109.29)"/><path class="cls-5" d="M494,418.86a15.26,15.26,0,0,1-15.4,15.57,15.78,15.78,0,0,1-.07-31.55C487.48,402.86,494.07,409.67,494,418.86Z" transform="translate(12.05 -109.29)"/><path class="cls-6" d="M477.67,421.63c-1.46,2.55-1,4.25-1.06,5.87-.07,2.09-1.34,2.34-3,2.4-1.93.06-2.65-.73-2.62-2.65.07-5.83,0-11.66,0-17.48,0-.82-.07-1.69.71-2.26,3.1-2.27,13.64.56,15.25,4.09,1.12,2.48,1.3,5.32-.71,7-3.17,2.61-1.58,4.74-.37,7.29.53,1.13,2.64,2.69.62,3.67-1.76.85-4.28,1.12-5.55-1.57C480.06,426.07,479,424.23,477.67,421.63Z" transform="translate(12.05 -109.29)"/><path class="cls-7" d="M482,415c-.2,2-1.69,2.4-3.45,2.47-2.2.1-2.2-1.42-2.19-3s.32-3,2.45-2.65C480.49,412.1,482,412.63,482,415Z" transform="translate(12.05 -109.29)"/></svg>