<svg id="Layer_1" data-name="Layer 1" xmlns="http://www.w3.org/2000/svg" viewBox="0 0 922.79 212.13"><defs><style>.cls-1{fill:#fefefe;}.cls-2{fill:#b4c41a;}.cls-3{fill:#006344;}.cls-4{fill:#b5c51d;}.cls-5{fill:#fdfdfb;}.cls-6{fill:#fcfcf8;}.cls-7{fill:#b6c61f;}</style></defs><title>logo completo</title><path class="cls-1" d="M-4.42,320.3c-6.54-1.87-13-4-19.38-6.38-2.86-1.08-3.89-.42-5.12,2.25a27.13,27.13,0,0,1-43.52,8c-9.37-9.17-10.77-20.64-8.44-32.83a27,27,0,0,1,23.33-22.16c13.46-1.6,22,3.17,27.8,15.88,1,2.15,1.89,2.56,4.09,1.78C-18.78,284.4-11.87,282-4.87,280c3.32-1,3.52-2.57,2.46-5.43-4-10.81-10.49-19.79-20.52-25.58-19.7-11.36-40.1-11.82-60-1-20.27,11-28.92,29.41-29.5,50.91.24,6.55.64,12,2,17.37,7.18,28.57,34.69,48.38,68.34,42.6C-22.76,355.5-9.2,344.42-1.91,326-.68,322.89-.89,321.32-4.42,320.3Zm72.84-79.86c-33.88.09-59.06,25.65-58.93,59.81s25.27,59.6,59.18,59.55,58.86-25.42,58.85-59.77S102.28,240.35,68.42,240.44Zm5.39,91C59,334,46,326.14,41.91,311.61c-3.73-13.29-2.57-26.05,8-36,8.34-7.89,18.66-9.36,29.29-5.11,11.66,4.65,16.42,14.36,17.66,26.24.12,1.16.12,2.33.17,3.5C97,316.68,87.82,329,73.81,331.4Zm125.5-91c-33.71,0-58.77,25.29-58.83,59.29-.06,34.77,24.88,60.16,59,60.07s58.7-25.13,58.7-59.74S233.32,240.4,199.31,240.44ZM204,331.5c-13.68,2.2-26.24-5.1-30.81-18.1a39.16,39.16,0,0,1-.64-24.54c3.83-13,14.86-21.09,27.88-20.51a27.88,27.88,0,0,1,26.43,23.08c.57,2.93.76,5.93,1.13,8.9C227.76,317,218.48,329.17,204,331.5Zm182.59,20.34c-13.52-19.19-27-38.4-40.62-57.51-1.65-2.32-1.77-3.55.36-5.72,10-10.21,19.85-20.65,29.71-31,4-4.23,8-8.54,12.56-13.47-12.68,0-24.18.11-35.67-.07a8.75,8.75,0,0,0-7.29,3.21c-11.43,12.51-23,24.87-35.51,38.31v-5.34c0-28.33-.05-56.66.06-85,0-3.18-.71-4.31-4.08-4.2-7.66.26-15.33.18-23,0-2.62-.05-3.38.72-3.38,3.36q.11,79.25,0,158.49c0,2.51.52,3.59,3.27,3.43,4-.22,8,.07,12-.09,4.94-.19,11.53,2.15,14.34-1,2.44-2.7,1.25-9.25.66-14-1.29-10.24,1.66-18.26,9.8-24.85,2.85-2.3,3.52-2,5.32.66,8.2,12.14,16.59,24.15,25,36.17.89,1.28,1.43,3,3.59,3,11.72-.05,23.43,0,35.9,0C388.26,354.25,387.47,353,386.63,351.84Zm130.44-75.76c-12.28-40.59-61.73-43.8-82.07-21,0-20.47-.07-40.13.07-59.79,0-3.24-.86-4.3-4.16-4.19-7.16.24-14.34.25-21.49,0-3.43-.12-4.61.78-4.5,4.37.26,8.82.08,17.66.08,26.49,0,43.16.05,86.31-.08,129.47,0,3.8.78,5.21,4.86,5,7-.37,14-.26,21,0,3.15.11,4.05-1,3.9-4-.13-2.47-.52-5.08.5-7.82,6.41,6.7,9.91,9.27,15.53,11.49,19.67,7.81,44.47,1.22,57.13-15.81C522.4,320.63,523.94,298.8,517.07,276.08Zm-29.62,38.67c-4.12,10.65-13.26,16.93-24.74,16.88s-20-5.43-24.92-16c-2.31-4.92-3.07-10.15-3.16-16.23.1-10.52,3.21-20.44,13.15-26.86a27,27,0,0,1,40.15,13.85A39.94,39.94,0,0,1,487.45,314.75Zm147.68,33.47c-.08-1-.12-2-.13-3,0-20.81,0-41.63-.17-62.44-.1-18.26-8.79-32.09-24.63-38.08-14.79-5.59-30-6.13-44.94-.59-13.41,5-22.66,14.2-26.74,28.22-1,3.61-1,5.84,3.68,6.46a135.54,135.54,0,0,1,18,3.77c3.38.93,4.39.28,5.42-3.11,4.16-13.8,23.38-19.29,34.46-10,3.67,3.07,5.52,7.2,4.47,12-1,4.53-4.8,5.52-8.77,6-1.82.23-3.63.5-5.42.84-11.09,2.12-22.55,2.26-33.26,6.3-13.55,5.12-21.61,16.35-22,30.38-.34,13.12,8.25,25.77,21.14,31.16,17.83,7.44,35.54,3.39,50.49-12,.19,3,.42,5.32.48,7.61.09,3.45,1.47,4.88,5.21,4.58,5-.39,10-.09,15-.09C635.78,356.28,635.77,356.28,635.13,348.22Zm-30.28-36.51c-.17,17.05-11.31,27-27.61,24.68a12.8,12.8,0,0,1-11.18-10.48c-.92-6,1.71-11.38,7.29-14,7.22-3.35,15.26-3,22.86-4.61,1-.21,2-.21,3-.37C604.91,306,604.9,306,604.85,311.71Zm163.2-64.3c0-2.71-1-3.39-3.48-3.33-6,.14-12,0-18,0-8,0-7.94,0-8.2,8.14,0,.85.53,2.09-1,2.4-2.9-3.47-6.13-6.62-10.37-8.39-17.86-7.44-35.13-5.94-50.62,5.46-17.66,13-24,31.4-21.4,52.81,2.43,20,12.35,35.26,31.45,42.78,18.25,7.18,35.84,6.23,51.37-8.85a81.44,81.44,0,0,1-.49,13.68c-2,14.46-9.7,22.11-24.43,23.9s-25.15-4.52-30.1-18.06c-.71-2-1.27-3.08-3.8-2.34-7.19,2.1-14.45,4-21.71,5.78-2.54.64-2.94,1.85-2.32,4.29a43.79,43.79,0,0,0,9.49,18.48c12.45,14.21,28.68,19.08,47,18.95,32.55-.24,55.39-21.24,56.26-53.76C768.55,315.42,767.92,281.4,768.05,247.41Zm-56.19,77.71c-15.94,0-26.75-11.5-26.71-28.4,0-16.5,11.66-28.61,27.13-28.26,15.12.34,25.91,12.19,25.87,28.42C738.11,313.65,727.42,325.14,711.86,325.12Zm78.88-81c-.39-.68-.84-1.24-1.76-.9l1.1,1.2c.24,0,.49,0,.73-.06C790.79,244.33,790.76,244.25,790.74,244.17Zm5.14-6.9A14.51,14.51,0,0,0,781,251.5c-.19,8.69,6.34,15.65,14.63,15.6a15,15,0,0,0,14.77-14.61A14.81,14.81,0,0,0,795.88,237.27Zm6.17,23.85a.85.85,0,0,0,.14-.41A.89.89,0,0,0,802,260c.2-2.43-3.16-3.95-1.43-7,3.16-5.59,1.21-8.74-5.06-8.8-1.55,0-3.09.15-4.65.26,0-.08,0-.16-.07-.24-.39-.68-.84-1.24-1.76-.9l1.1,1.2c0,3.64-.11,7.28.13,10.91.11,1.66-1.38,4.52,1.91,4.62s1.36-3,2.21-4.49c.11-.18.51-.2,1-.37,1.44,2.57,2.35,6.11,6.6,5l.06,1c-5.53,3.58-11.46,2.82-15-1.93-3.77-5-3-11.4,2-16,4.76-4.55,12.13-2.4,15.32,1.75S808.09,257.21,802.05,261.12Zm-4.17-12c.09,1.44-.85,2.07-2.19,2.13s-1.53-.94-1.55-2,.35-2,1.69-1.88C796.94,247.41,797.81,247.9,797.88,249.08Z" transform="translate(112.39 -191.02)"/><path class="cls-2" d="M768.05,247.41c0-2.71-1-3.39-3.48-3.33-6,.14-12,0-18,0-8,0-7.94,0-8.2,8.14,0,.85.53,2.09-1,2.4-2.9-3.47-6.13-6.62-10.37-8.39-17.86-7.44-35.13-5.94-50.62,5.46-17.66,13-24,31.4-21.4,52.81,2.43,20,12.35,35.26,31.45,42.78,18.25,7.18,35.84,6.23,51.37-8.85a81.44,81.44,0,0,1-.49,13.68c-2,14.46-9.7,22.11-24.43,23.9s-25.15-4.52-30.1-18.06c-.71-2-1.27-3.08-3.8-2.34-7.19,2.1-14.45,4-21.71,5.78-2.54.64-2.94,1.85-2.32,4.29a43.79,43.79,0,0,0,9.49,18.48c12.45,14.21,28.68,19.08,47,18.95,32.55-.24,55.39-21.24,56.26-53.76C768.55,315.42,767.92,281.4,768.05,247.41Zm-56.19,77.71c-15.94,0-26.75-11.5-26.71-28.4,0-16.5,11.66-28.61,27.13-28.26,15.12.34,25.91,12.19,25.87,28.42C738.11,313.65,727.42,325.14,711.86,325.12Z" transform="translate(112.39 -191.02)"/><path class="cls-2" d="M517.07,276.08c-12.28-40.59-61.73-43.8-82.07-21,0-20.47-.07-40.13.07-59.79,0-3.24-.86-4.3-4.16-4.19-7.16.24-14.34.25-21.49,0-3.43-.12-4.61.78-4.5,4.37.26,8.82.08,17.66.08,26.49,0,43.16.05,86.31-.08,129.47,0,3.8.78,5.21,4.86,5,7-.37,14-.26,21,0,3.15.11,4.05-1,3.9-4-.13-2.47-.52-5.08.5-7.82,6.41,6.7,9.91,9.27,15.53,11.49,19.67,7.81,44.47,1.22,57.13-15.81C522.4,320.63,523.94,298.8,517.07,276.08Zm-29.62,38.67c-4.12,10.65-13.26,16.93-24.74,16.88s-20-5.43-24.92-16c-2.31-4.92-3.07-10.15-3.16-16.23.1-10.52,3.21-20.44,13.15-26.86a27,27,0,0,1,40.15,13.85A39.94,39.94,0,0,1,487.45,314.75Z" transform="translate(112.39 -191.02)"/><path class="cls-3" d="M389.62,356.27c-12.47,0-24.18,0-35.9,0-2.16,0-2.7-1.72-3.59-3-8.37-12-16.76-24-25-36.17-1.8-2.66-2.47-3-5.32-.66-8.14,6.59-11.09,14.61-9.8,24.85.59,4.72,1.78,11.27-.66,14-2.81,3.11-9.4.77-14.34,1-4,.16-8-.13-12,.09-2.75.16-3.28-.92-3.27-3.43q.09-79.24,0-158.49c0-2.64.76-3.41,3.38-3.36,7.66.16,15.33.24,23,0,3.37-.11,4.1,1,4.08,4.2-.11,28.33-.06,56.66-.06,85v5.34c12.49-13.44,24.08-25.8,35.51-38.31A8.75,8.75,0,0,1,353,244c11.49.18,23,.07,35.67.07-4.59,4.93-8.54,9.24-12.56,13.47-9.86,10.38-19.67,20.82-29.71,31-2.13,2.17-2,3.4-.36,5.72,13.62,19.11,27.1,38.32,40.62,57.51C387.47,353,388.26,354.25,389.62,356.27Z" transform="translate(112.39 -191.02)"/><path class="cls-3" d="M68.42,240.44c-33.88.09-59.06,25.65-58.93,59.81s25.27,59.6,59.18,59.55,58.86-25.42,58.85-59.77S102.28,240.35,68.42,240.44Zm5.39,91C59,334,46,326.14,41.91,311.61c-3.73-13.29-2.57-26.05,8-36,8.34-7.89,18.66-9.36,29.29-5.11,11.66,4.65,16.42,14.36,17.66,26.24.12,1.16.12,2.33.17,3.5C97,316.68,87.82,329,73.81,331.4Z" transform="translate(112.39 -191.02)"/><path class="cls-3" d="M199.31,240.44c-33.71,0-58.77,25.29-58.83,59.29-.06,34.77,24.88,60.16,59,60.07s58.7-25.13,58.7-59.74S233.32,240.4,199.31,240.44ZM204,331.5c-13.68,2.2-26.24-5.1-30.81-18.1a39.16,39.16,0,0,1-.64-24.54c3.83-13,14.86-21.09,27.88-20.51a27.88,27.88,0,0,1,26.43,23.08c.57,2.93.76,5.93,1.13,8.9C227.76,317,218.48,329.17,204,331.5Z" transform="translate(112.39 -191.02)"/><path class="cls-2" d="M635.13,348.22c-.08-1-.12-2-.13-3,0-20.81,0-41.63-.17-62.44-.1-18.26-8.79-32.09-24.63-38.08-14.79-5.59-30-6.13-44.94-.59-13.41,5-22.66,14.2-26.74,28.22-1,3.61-1,5.84,3.68,6.46a135.54,135.54,0,0,1,18,3.77c3.38.93,4.39.28,5.42-3.11,4.16-13.8,23.38-19.29,34.46-10,3.67,3.07,5.52,7.2,4.47,12-1,4.53-4.8,5.52-8.77,6-1.82.23-3.63.5-5.42.84-11.09,2.12-22.55,2.26-33.26,6.3-13.55,5.12-21.61,16.35-22,30.38-.34,13.12,8.25,25.77,21.14,31.16,17.83,7.44,35.54,3.39,50.49-12,.19,3,.42,5.32.48,7.61.09,3.45,1.47,4.88,5.21,4.58,5-.39,10-.09,15-.09C635.78,356.28,635.77,356.28,635.13,348.22Zm-30.28-36.51c-.17,17.05-11.31,27-27.61,24.68a12.8,12.8,0,0,1-11.18-10.48c-.92-6,1.71-11.38,7.29-14,7.22-3.35,15.26-3,22.86-4.61,1-.21,2-.21,3-.37C604.91,306,604.9,306,604.85,311.71Z" transform="translate(112.39 -191.02)"/><path class="cls-3" d="M-1.91,326C-9.2,344.42-22.76,355.5-42,358.82c-33.65,5.78-61.16-14-68.34-42.6-1.36-5.38-1.76-10.82-2-17.37.58-21.5,9.23-39.89,29.5-50.91,19.86-10.81,40.26-10.35,60,1,10,5.79,16.49,14.77,20.52,25.58,1.06,2.86.86,4.45-2.46,5.43-7,2.07-13.91,4.44-20.79,6.89-2.2.78-3.1.37-4.09-1.78-5.84-12.71-14.34-17.48-27.8-15.88a27,27,0,0,0-23.33,22.16c-2.33,12.19-.93,23.66,8.44,32.83a27.13,27.13,0,0,0,43.52-8c1.23-2.67,2.26-3.33,5.12-2.25,6.36,2.38,12.84,4.51,19.38,6.38C-.89,321.32-.68,322.89-1.91,326Z" transform="translate(112.39 -191.02)"/><path class="cls-4" d="M790.74,244.17c-.39-.68-.84-1.24-1.76-.9l1.1,1.2c.24,0,.49,0,.73-.06C790.79,244.33,790.76,244.25,790.74,244.17Zm5.14-6.9A14.51,14.51,0,0,0,781,251.5c-.19,8.69,6.34,15.65,14.63,15.6a15,15,0,0,0,14.77-14.61A14.81,14.81,0,0,0,795.88,237.27Zm6.17,23.85a.85.85,0,0,0,.14-.41A.89.89,0,0,0,802,260c.2-2.43-3.16-3.95-1.43-7,3.16-5.59,1.21-8.74-5.06-8.8-1.55,0-3.09.15-4.65.26,0-.08,0-.16-.07-.24-.39-.68-.84-1.24-1.76-.9l1.1,1.2c0,3.64-.11,7.28.13,10.91.11,1.66-1.38,4.52,1.91,4.62s1.36-3,2.21-4.49c.11-.18.51-.2,1-.37,1.44,2.57,2.35,6.11,6.6,5l.06,1c-5.53,3.58-11.46,2.82-15-1.93-3.77-5-3-11.4,2-16,4.76-4.55,12.13-2.4,15.32,1.75S808.09,257.21,802.05,261.12Zm-4.17-12c.09,1.44-.85,2.07-2.19,2.13s-1.53-.94-1.55-2,.35-2,1.69-1.88C796.94,247.41,797.81,247.9,797.88,249.08Z" transform="translate(112.39 -191.02)"/><path class="cls-5" d="M802.19,260.71a.85.85,0,0,1-.14.41l0,0-.06-1c-4.25,1.13-5.16-2.41-6.6-5-.5.17-.9.19-1,.37-.85,1.47,1.2,4.6-2.21,4.49s-1.8-3-1.91-4.62c-.24-3.63-.11-7.27-.13-10.91l-1.1-1.2c.92-.34,1.37.22,1.76.9,0,.08,0,.16.07.24s.11.42.16.62c.9,4-.3,8.22.8,12.38,2.82-3.87,2.87-3.92,6.13-.39a15.05,15.05,0,0,0,3.19,2.31c.27.17.54.35.79.54a.28.28,0,0,1,.07.09A.89.89,0,0,1,802.19,260.71Z" transform="translate(112.39 -191.02)"/><path class="cls-6" d="M802.19,260.71a.85.85,0,0,1-.14.41l0,0-.06-1a8.1,8.1,0,0,1-.85-.79c-1.76-1.84-2.2-4-1.46-6.75,1.52-5.63.77-6.52-5.29-7A9.77,9.77,0,0,1,791,245a3.68,3.68,0,0,1-.89-.56l-1.1-1.2c.92-.34,1.37.22,1.76.9,0,.08,0,.16.07.24,1.56-.11,3.1-.28,4.65-.26,6.27.06,8.22,3.21,5.06,8.8-1.73,3.06,1.63,4.58,1.43,7A.89.89,0,0,1,802.19,260.71Z" transform="translate(112.39 -191.02)"/><path class="cls-7" d="M800.52,253c3.16-5.59,1.21-8.74-5.06-8.8-1.55,0-3.09.15-4.65.26-.24,0-.49,0-.73.06,0,3.64-.11,7.28.13,10.91.11,1.66-1.38,4.52,1.91,4.62s1.36-3,2.21-4.49c.11-.18.51-.2,1-.37,1.44,2.57,2.35,6.11,6.6,5a.43.43,0,0,0,0-.16C802.15,257.53,798.79,256,800.52,253Zm-4.83-1.74c-1.41.06-1.53-.94-1.55-2s.35-2,1.69-1.88c1.11.08,2,.57,2,1.75C798,250.52,797,251.15,795.69,251.21Z" transform="translate(112.39 -191.02)"/></svg>